<?xml version="1.0"?>
<svg xmlns="http://www.w3.org/2000/svg" id="Layer_1" enable-background="new 0 0 506.622 506.622" height="512px" viewBox="0 0 506.622 506.622" width="512px"><g><path d="m506.622 160.969v-12.622c0-35.357-28.766-64.123-64.123-64.123h-378.376c-35.357 0-64.123 28.766-64.123 64.123v12.622z" data-original="#000000" class="active-path" data-old_color="#000000" fill="#FFFFFF"/><path d="m0 192.969h506.622v39.557h-506.622z" data-original="#000000" class="active-path" data-old_color="#000000" fill="#FFFFFF"/><path d="m0 264.526v93.749c0 35.357 28.766 64.123 64.123 64.123h378.376c35.357 0 64.123-28.766 64.123-64.123v-93.749zm371.535 85.774c-9.323 0-16.88-7.558-16.88-16.88 0-9.323 7.557-16.88 16.88-16.88s16.88 7.557 16.88 16.88-7.557 16.88-16.88 16.88zm47.327 0c-9.323 0-16.88-7.558-16.88-16.88 0-9.323 7.557-16.88 16.88-16.88s16.88 7.557 16.88 16.88-7.557 16.88-16.88 16.88z" data-original="#000000" class="active-path" data-old_color="#000000" fill="#FFFFFF"/></g> </svg>

